<svg width="248" height="138" viewBox="0 0 248 138" fill="none" xmlns="http://www.w3.org/2000/svg">
<g clip-path="url(#clip0_3879_6065)">
<path fill-rule="evenodd" clip-rule="evenodd" d="M13 116C12.4477 116 12 116.448 12 117C12 117.552 12.4477 118 13 118H66.5C67.0523 118 67.5 117.552 67.5 117C67.5 116.448 67.0523 116 66.5 116H13ZM184 116C183.448 116 183 116.448 183 117C183 117.552 183.448 118 184 118H209.5C210.052 118 210.5 117.552 210.5 117C210.5 116.448 210.052 116 209.5 116H184ZM219.5 116C218.948 116 218.5 116.448 218.5 117C218.5 117.552 218.948 118 219.5 118L249.5 118C250.052 118 250.5 117.552 250.5 117C250.5 116.448 250.052 116 249.5 116L219.5 116Z" fill="#146BB8"/>
<path d="M118 22H82C82 22 85.0136 13.4319 89.6364 13.0426C96.7273 12.4454 96.5991 18.3185 102.727 18.417C106.396 18.4761 110.145 15.7187 113.636 17.2227C116.043 18.2597 118 22 118 22Z" stroke="#B1D7FB" stroke-linecap="round" stroke-linejoin="round"/>
<path d="M192 68.9911H220C220 68.9911 217.656 62.3355 214.061 62.0331C208.545 61.5692 208.645 66.1313 203.879 66.2079C201.026 66.2537 198.109 64.1118 195.394 65.2802C193.522 66.0856 192 68.9911 192 68.9911Z" stroke="#B1D7FB" stroke-linecap="round" stroke-linejoin="round"/>
<path d="M52 75.9911H24C24 75.9911 26.3439 69.3355 29.9394 69.0331C35.4545 68.5692 35.3548 73.1313 40.1212 73.2079C42.9745 73.2537 45.8907 71.1118 48.6061 72.2802C50.4781 73.0856 52 75.9911 52 75.9911Z" stroke="#B1D7FB" stroke-linecap="round" stroke-linejoin="round"/>
<path d="M115.986 94H112.933H107.668H97.1381H81.0613C78.4794 94 76.0561 92.7539 74.5542 90.6537L73.9079 89.75L72.3881 87.625L71.6283 86.5625L71.2483 86.0312L71.0583 85.7656" stroke="#146BB8" stroke-width="2" stroke-linecap="round"/>
<path d="M121.997 94H124.656H124.939C127.52 94 129.944 92.7539 131.446 90.6537L132.092 89.75L132.472 89.2188" stroke="#146BB8" stroke-width="2" stroke-linecap="round"/>
<path d="M136 80.5V78C136 74.6863 133.314 72 130 72H77C73.6863 72 71 74.6863 71 78V95.5V117C71 119.209 72.7909 121 75 121H128" stroke="#146BB8" stroke-width="2" stroke-linecap="round"/>
<path d="M92.5789 71V68C92.5789 64.6863 95.2651 62 98.5789 62H107.421C110.735 62 113.421 64.6863 113.421 68V71" stroke="#146BB8" stroke-width="3" stroke-linecap="round"/>
<rect x="97.7896" y="89" width="10.4211" height="10" rx="2" fill="#146BB8"/>
<path d="M152 121H175.774C178.07 121 179.894 119.073 179.768 116.781L176.748 61.7807C176.632 59.66 174.878 58 172.754 58H139.057C137.012 58 135.296 59.5434 135.079 61.5775L134.595 66.1429L134.378 68.1786" stroke="#146BB8" stroke-width="2" stroke-linecap="round"/>
<path d="M164 63V69C164 73.4183 160.418 77 156 77V77C151.582 77 148 73.4183 148 69V63" stroke="#146BB8" stroke-width="3" stroke-linecap="round"/>
<path d="M146.827 98.794L144.293 94.6467C144.101 94.3328 144 93.972 144 93.6041V87C144 85.8954 143.105 85 142 85H138C136.895 85 136 85.8954 136 87V93.6041C136 93.972 135.899 94.3328 135.707 94.6467L133.173 98.794C132.406 100.05 132 101.493 132 102.965V119.667C132 120.771 132.895 121.667 134 121.667H146C147.105 121.667 148 120.771 148 119.667V102.965C148 101.493 147.594 100.05 146.827 98.794Z" stroke="#146BB8" stroke-width="2"/>
<path d="M136 94.1665H140" stroke="#146BB8" stroke-width="2" stroke-linecap="round"/>
<path d="M142.667 94.1665L144 94.1665" stroke="#146BB8" stroke-width="2" stroke-linecap="round"/>
<ellipse cx="140.667" cy="88.9287" rx="1.33333" ry="1.30952" fill="#146BB8"/>
<path fill-rule="evenodd" clip-rule="evenodd" d="M137 106C135.895 106 135 106.895 135 108V114C135 115.105 135.895 116 137 116H143C144.105 116 145 115.105 145 114V108C145 106.895 144.105 106 143 106H137ZM139 108.5C139 108.224 139.224 108 139.5 108H140.5C140.776 108 141 108.224 141 108.5V110H142.5C142.776 110 143 110.224 143 110.5V111.5C143 111.776 142.776 112 142.5 112H141V113.5C141 113.776 140.776 114 140.5 114H139.5C139.224 114 139 113.776 139 113.5V112H137.5C137.224 112 137 111.776 137 111.5V110.5C137 110.224 137.224 110 137.5 110H139V108.5Z" fill="#D92534"/>
<path d="M148 86L151.5 84.75L155 83.5M162 81L158.5 82.25" stroke="#146BB8" stroke-linecap="round"/>
<path d="M148 89H151.5M162 89H158.5H155" stroke="#146BB8" stroke-linecap="round"/>
<path d="M162 97L158.5 95.75M148 92L155 94.5" stroke="#146BB8" stroke-linecap="round"/>
</g>
<defs>
<clipPath id="clip0_3879_6065">
<rect width="248" height="138" fill="white"/>
</clipPath>
</defs>
</svg>
