<svg width="20" height="20" viewBox="0 0 20 20" fill="none" xmlns="http://www.w3.org/2000/svg">
<rect x="5.25" y="4.75" width="1.5" height="1.5" rx="0.75" fill="#146BB8"/>
<rect x="8.75" y="4.75" width="1.5" height="1.5" rx="0.75" fill="#146BB8"/>
<rect x="12.25" y="4.75" width="1.5" height="1.5" rx="0.75" fill="#146BB8"/>
<rect x="5.25" y="7.75" width="1.5" height="1.5" rx="0.75" fill="#146BB8"/>
<rect x="8.75" y="7.75" width="1.5" height="1.5" rx="0.75" fill="#146BB8"/>
<rect x="12.25" y="7.75" width="1.5" height="1.5" rx="0.75" fill="#146BB8"/>
<rect x="5.25" y="10.75" width="1.5" height="1.5" rx="0.75" fill="#146BB8"/>
<rect x="8.75" y="10.75" width="1.5" height="1.5" rx="0.75" fill="#146BB8"/>
<rect x="5.25" y="13.75" width="1.5" height="1.5" rx="0.75" fill="#146BB8"/>
<path d="M17.5833 13.6667C17.5833 14.273 17.298 15.0424 16.8632 15.8407C16.4366 16.6241 15.9019 17.3718 15.4787 17.9175C15.3143 18.1296 15.019 18.1296 14.8546 17.9175C14.4314 17.3718 13.8967 16.6241 13.4701 15.8407C13.0354 15.0424 12.75 14.273 12.75 13.6667C12.75 12.3595 13.8595 11.25 15.1667 11.25C16.4739 11.25 17.5833 12.3595 17.5833 13.6667ZM16.6748 13.8115C16.6719 13.7417 16.6659 13.6748 16.6593 13.6139C16.6187 13.236 16.4164 12.9012 16.1629 12.6658C15.9097 12.4305 15.5571 12.25 15.1667 12.25C14.4178 12.25 13.6667 12.864 13.6667 13.75C13.6667 14.4988 14.2806 15.25 15.1667 15.25C15.5762 15.25 15.9519 15.0853 16.2232 14.8361C16.4922 14.589 16.692 14.2252 16.6748 13.8115Z" fill="#146BB8" stroke="#146BB8"/>
<path fill-rule="evenodd" clip-rule="evenodd" d="M4.25 2C3.2835 2 2.5 2.7835 2.5 3.75V16.75C2.5 17.7165 3.2835 18.5 4.25 18.5H12.25C12.6642 18.5 13 18.1642 13 17.75C13 17.3358 12.6642 17 12.25 17H11.25C10.6977 17 10.25 16.5523 10.25 16V14.5C10.25 14.0858 9.91421 13.75 9.5 13.75C9.08579 13.75 8.75 14.0858 8.75 14.5V16C8.75 16.5523 8.30228 17 7.75 17H4.25C4.11193 17 4 16.8881 4 16.75V3.75C4 3.61193 4.11193 3.5 4.25 3.5H14.75C14.8881 3.5 15 3.61193 15 3.75V9.05303C15 9.46724 15.3358 9.80303 15.75 9.80303C16.1642 9.80303 16.5 9.46724 16.5 9.05303V3.75C16.5 2.7835 15.7165 2 14.75 2H4.25Z" fill="#146BB8"/>
</svg>
