<svg width="20" height="20" viewBox="0 0 20 20" fill="none" xmlns="http://www.w3.org/2000/svg">
<path fill-rule="evenodd" clip-rule="evenodd" d="M2 17.3833V5.50129C2 5.12252 2.214 4.77626 2.55279 4.60686L9.55279 1.10686C10.2177 0.774412 11 1.25791 11 2.00129V8.38326H11.5H16.5H17C17.5523 8.38326 18 8.83097 18 9.38326V9.88326V16.8833V17.3833C18 17.9355 17.5523 18.3833 17 18.3833H16.5H11.5H11H3C2.44772 18.3833 2 17.9355 2 17.3833ZM4.75 5.38329C4.33579 5.38329 4 5.71908 4 6.13329C4 6.54751 4.33579 6.88329 4.75 6.88329C5.16421 6.88329 5.5 6.54751 5.5 6.13329C5.5 5.71908 5.16421 5.38329 4.75 5.38329ZM4.75 8.38329C4.33579 8.38329 4 8.71908 4 9.1333C4 9.54751 4.33579 9.8833 4.75 9.8833C5.16421 9.8833 5.5 9.54751 5.5 9.1333C5.5 8.71908 5.16421 8.38329 4.75 8.38329ZM4 12.1333C4 11.7191 4.33579 11.3833 4.75 11.3833C5.16421 11.3833 5.5 11.7191 5.5 12.1333C5.5 12.5475 5.16421 12.8833 4.75 12.8833C4.33579 12.8833 4 12.5475 4 12.1333ZM4.75 14.3833C4.33579 14.3833 4 14.7191 4 15.1333C4 15.5475 4.33579 15.8833 4.75 15.8833C5.16421 15.8833 5.5 15.5475 5.5 15.1333C5.5 14.7191 5.16421 14.3833 4.75 14.3833ZM7.5 6.13329C7.5 5.71908 7.83579 5.38329 8.25 5.38329C8.66421 5.38329 9 5.71908 9 6.13329C9 6.54751 8.66421 6.88329 8.25 6.88329C7.83579 6.88329 7.5 6.54751 7.5 6.13329ZM8.25 8.38329C7.83579 8.38329 7.5 8.71908 7.5 9.1333C7.5 9.54751 7.83579 9.8833 8.25 9.8833C8.66421 9.8833 9 9.54751 9 9.1333C9 8.71908 8.66421 8.38329 8.25 8.38329ZM7.5 12.1333C7.5 11.7191 7.83579 11.3833 8.25 11.3833C8.66421 11.3833 9 11.7191 9 12.1333C9 12.5475 8.66421 12.8833 8.25 12.8833C7.83579 12.8833 7.5 12.5475 7.5 12.1333ZM8.25 14.3833C7.83579 14.3833 7.5 14.7191 7.5 15.1333C7.5 15.5475 7.83579 15.8833 8.25 15.8833C8.66421 15.8833 9 15.5475 9 15.1333C9 14.7191 8.66421 14.3833 8.25 14.3833ZM12.139 9.88326C11.7861 9.88326 11.5 10.1694 11.5 10.5223V11.1711C11.5 11.2955 11.6256 11.3833 11.75 11.3833C12.1642 11.3833 12.5 11.719 12.5 12.1333C12.5 12.5475 12.1642 12.8833 11.75 12.8833C11.6256 12.8833 11.5 12.971 11.5 13.0954V14.1711C11.5 14.2955 11.6256 14.3833 11.75 14.3833C12.1642 14.3833 12.5 14.719 12.5 15.1333C12.5 15.5475 12.1642 15.8833 11.75 15.8833C11.6256 15.8833 11.5 15.971 11.5 16.0954V16.4513C11.5 16.6899 11.6934 16.8833 11.9319 16.8833H15.5C16.0523 16.8833 16.5 16.4355 16.5 15.8833V10.8833C16.5 10.331 16.0523 9.88326 15.5 9.88326H12.139ZM14.75 11.3833C14.3358 11.3833 14 11.719 14 12.1333C14 12.5475 14.3358 12.8833 14.75 12.8833C15.1642 12.8833 15.5 12.5475 15.5 12.1333C15.5 11.719 15.1642 11.3833 14.75 11.3833ZM14.75 14.3833C14.3358 14.3833 14 14.719 14 15.1333C14 15.5475 14.3358 15.8833 14.75 15.8833C15.1642 15.8833 15.5 15.5475 15.5 15.1333C15.5 14.719 15.1642 14.3833 14.75 14.3833Z" fill="#146BB8"/>
</svg>
