<svg width="24" height="24" viewBox="0 0 24 24" fill="none" xmlns="http://www.w3.org/2000/svg">
<rect width="24" height="24" rx="12" fill="#77BAF8"/>
<path d="M6.75 12C6.75 11.6548 7.02982 11.375 7.375 11.375H14.6967L12.8093 9.60066C12.5388 9.34634 12.5391 8.91647 12.81 8.66253C13.0574 8.43052 13.4426 8.43052 13.69 8.66253L16.4718 11.2705C16.8932 11.6655 16.8932 12.3345 16.4718 12.7295L13.6928 15.3348C13.444 15.5681 13.0566 15.5674 12.8086 15.3333C12.5383 15.0781 12.5391 14.6478 12.8103 14.3935L14.6967 12.625H9.97333H7.375C7.02982 12.625 6.75 12.3452 6.75 12Z" fill="white"/>
</svg>
