<svg width="248" height="138" viewBox="0 0 248 138" fill="none" xmlns="http://www.w3.org/2000/svg">
<g clip-path="url(#clip0_3669_67194)">
<path fill-rule="evenodd" clip-rule="evenodd" d="M13 116C12.4477 116 12 116.448 12 117C12 117.552 12.4477 118 13 118H62.125H74.4062H81.5C82.0523 118 82.5 117.552 82.5 117C82.5 116.448 82.0523 116 81.5 116H74.4062H62.125H13ZM96.5 116C95.9477 116 95.5 116.448 95.5 117C95.5 117.552 95.9477 118 96.5 118H98.9688H111.25H135.812H139.5C140.052 118 140.5 117.552 140.5 117C140.5 116.448 140.052 116 139.5 116H135.812H111.25H98.9688H96.5ZM154.5 116C153.948 116 153.5 116.448 153.5 117C153.5 117.552 153.948 118 154.5 118H160.375H209.5C210.052 118 210.5 117.552 210.5 117C210.5 116.448 210.052 116 209.5 116H160.375H154.5ZM219.5 116C218.948 116 218.5 116.448 218.5 117C218.5 117.552 218.948 118 219.5 118L249.5 118C250.052 118 250.5 117.552 250.5 117C250.5 116.448 250.052 116 249.5 116L219.5 116Z" fill="#146BB8"/>
<path d="M106 21H70C70 21 73.0136 12.4319 77.6364 12.0426C84.7273 11.4454 84.5991 17.3185 90.7273 17.417C94.3958 17.4761 98.1452 14.7187 101.636 16.2227C104.043 17.2597 106 21 106 21Z" stroke="#B1D7FB" stroke-linecap="round" stroke-linejoin="round"/>
<path d="M207 67.9911H235C235 67.9911 232.656 61.3355 229.061 61.0331C223.545 60.5692 223.645 65.1313 218.879 65.2079C216.026 65.2537 213.109 63.1118 210.394 64.2802C208.522 65.0856 207 67.9911 207 67.9911Z" stroke="#B1D7FB" stroke-linecap="round" stroke-linejoin="round"/>
<path d="M52 75.9911H24C24 75.9911 26.3439 69.3355 29.9394 69.0331C35.4545 68.5692 35.3548 73.1313 40.1212 73.2079C42.9745 73.2537 45.8907 71.1118 48.6061 72.2802C50.4781 73.0856 52 75.9911 52 75.9911Z" stroke="#B1D7FB" stroke-linecap="round" stroke-linejoin="round"/>
<circle cx="89" cy="109" r="11" stroke="#146BB8" stroke-width="2"/>
<circle cx="89" cy="109" r="4.5" stroke="#146BB8" stroke-width="3"/>
<circle cx="147" cy="109" r="11" stroke="#146BB8" stroke-width="2"/>
<circle cx="147" cy="109" r="4.5" stroke="#146BB8" stroke-width="3"/>
<path d="M77.5 110H69C66.7909 110 65 108.209 65 106V93V93C65 88.6648 68.1195 84.9575 72.3906 84.2147V84.2147C74.9944 83.7618 77.2641 82.1775 78.5863 79.8891L84.8803 68.9956C87.7391 64.0476 93.0198 61 98.7342 61H120.656C128.68 61 136.174 65.0104 140.625 71.6872L145.301 78.7012C147.323 81.7343 150.614 83.6838 154.246 83.9996L165.668 84.9929C169.349 85.3129 172.677 87.3104 174.69 90.4079L175.563 91.7505C177.135 94.1689 177.783 97.0727 177.389 99.93L176.476 106.547C176.203 108.526 174.512 110 172.514 110H159.5M101 110H120.5H135.5" stroke="#146BB8" stroke-width="2" stroke-linecap="round" stroke-linejoin="round"/>
<path d="M66 103H78.1" stroke="#146BB8" stroke-width="3" stroke-linecap="square" stroke-linejoin="round"/>
<path d="M104 103L108 103" stroke="#146BB8" stroke-width="3" stroke-linecap="round" stroke-linejoin="round"/>
<path d="M131 103H136" stroke="#146BB8" stroke-width="3" stroke-linecap="square" stroke-linejoin="round"/>
<path d="M114 103H136" stroke="#146BB8" stroke-width="3" stroke-linecap="round" stroke-linejoin="round"/>
<path d="M158 103H175" stroke="#146BB8" stroke-width="3" stroke-linecap="square" stroke-linejoin="round"/>
<path d="M84.8807 80.1324L88.279 73.0743C89.3947 70.7572 91.248 68.876 93.5483 67.7259C95.1606 66.9197 96.9385 66.5 98.7411 66.5H121.361C127.656 66.5 133.493 69.7878 136.755 75.1706L139.66 79.9634C140.467 81.2963 139.508 83 137.949 83H86.6827C85.209 83 84.2414 81.4602 84.8807 80.1324Z" stroke="#146BB8" stroke-width="2" stroke-linecap="round" stroke-linejoin="round"/>
<path d="M117 67V83" stroke="#146BB8" stroke-width="2" stroke-linecap="round" stroke-linejoin="round"/>
<path d="M96 74L96 83" stroke="#146BB8" stroke-width="2" stroke-linecap="round" stroke-linejoin="round"/>
<path d="M96 70L96 71" stroke="#146BB8" stroke-width="2" stroke-linecap="round" stroke-linejoin="round"/>
<path d="M98 89H104" stroke="#146BB8" stroke-width="3" stroke-linecap="round" stroke-linejoin="round"/>
<path d="M173 89H169.25C168.007 89 167 90.0074 167 91.25V91.25C167 92.4926 168.007 93.5 169.25 93.5H176.5" stroke="#146BB8" stroke-width="2" stroke-linecap="round" stroke-linejoin="round"/>
<path d="M122 89H128" stroke="#146BB8" stroke-width="3" stroke-linecap="round" stroke-linejoin="round"/>
<path d="M159 64.1808L159.295 63.2253C159.714 63.3547 160 63.7422 160 64.1808H159ZM165.442 65.5925L164.877 64.7672C165.082 64.6271 165.331 64.5681 165.577 64.6017L165.442 65.5925ZM159 70L159.565 70.8253C159.259 71.0348 158.862 71.0576 158.533 70.8845C158.205 70.7114 158 70.371 158 70H159ZM144 48C144 54.4428 149.971 60.3468 159.295 63.2253L158.705 65.1363C149.08 62.1648 142 55.7756 142 48H144ZM171.5 31C163.789 31 156.856 32.9759 151.881 36.1176C146.894 39.2673 144 43.4936 144 48H142C142 42.5653 145.486 37.7916 150.813 34.4266C156.154 31.0536 163.471 29 171.5 29V31ZM199 48C199 43.4936 196.106 39.2673 191.119 36.1176C186.144 32.9759 179.211 31 171.5 31V29C179.529 29 186.846 31.0536 192.187 34.4266C197.514 37.7916 201 42.5653 201 48H199ZM171.5 65C179.211 65 186.144 63.0241 191.119 59.8824C196.106 56.7327 199 52.5064 199 48H201C201 53.4347 197.514 58.2084 192.187 61.5734C186.846 64.9464 179.529 67 171.5 67V65ZM165.577 64.6017C167.484 64.8624 169.466 65 171.5 65V67C169.376 67 167.304 66.8564 165.306 66.5833L165.577 64.6017ZM158.435 69.1747L164.877 64.7672L166.006 66.4178L159.565 70.8253L158.435 69.1747ZM160 64.1808V70H158V64.1808H160Z" fill="#146BB8"/>
<path fill-rule="evenodd" clip-rule="evenodd" d="M159.395 38.9328C159.084 38.6686 158.509 38.6669 158.083 39.1228C157.744 39.4864 157.641 40.0804 157.877 40.6529C158.706 42.655 159.053 44.6523 159.359 46.4076L159.359 46.4077C159.425 46.7902 159.49 47.1613 159.557 47.5184C159.839 49.0222 160.166 50.291 160.795 51.3619C161.89 49.3605 162.487 47.1219 162.532 44.8364C161.7 41.5913 160.7 40.0419 159.395 38.9328ZM164.225 43.4459C163.364 40.5018 162.261 38.7433 160.69 37.4088C159.406 36.3173 157.624 36.6838 156.621 37.7582C155.666 38.7813 155.541 40.2373 156.029 41.4175C156.765 43.1961 157.069 44.9336 157.374 46.6778C157.445 47.0805 157.515 47.4836 157.591 47.8877C157.985 49.9848 158.53 52.1115 160.168 53.835C160.181 53.8488 160.194 53.8621 160.208 53.875L160.208 53.8751C166.76 60.0304 176.923 60.1792 183.653 54.2185L184.011 53.902C184.023 53.8915 184.034 53.8808 184.046 53.8696C184.061 53.8557 184.075 53.8415 184.088 53.8269C185.72 52.1049 186.264 49.9815 186.657 47.8877C186.733 47.4836 186.803 47.0805 186.874 46.6778C187.179 44.9336 187.483 43.1961 188.219 41.4175C188.707 40.2373 188.582 38.7813 187.627 37.7582C186.624 36.6838 184.842 36.3173 183.558 37.4088C181.988 38.7433 180.884 40.5018 180.023 43.4459C174.782 42.7188 169.466 42.7188 164.225 43.4459ZM186.165 39.1228C185.739 38.6669 185.164 38.6686 184.853 38.9328C183.548 40.042 182.548 41.5914 181.716 44.8367C181.761 47.1221 182.358 49.3607 183.453 51.362C184.083 50.291 184.409 49.0222 184.691 47.5184C184.758 47.1616 184.823 46.791 184.889 46.4089L184.89 46.4082L184.89 46.4076C185.195 44.6523 185.543 42.655 186.371 40.6529C186.608 40.0804 186.504 39.4864 186.165 39.1228ZM162.183 52.9573C163.571 50.6738 164.369 48.0855 164.512 45.4252C169.563 44.7257 174.686 44.7257 179.736 45.4252C179.879 48.0832 180.676 50.6692 182.062 52.9511C176.313 57.8169 167.899 57.7927 162.183 52.9573ZM166.282 47.9738L166.054 47.0002C165.516 47.1262 165.183 47.6643 165.309 48.202C165.435 48.7397 165.973 49.0734 166.51 48.9474L166.511 48.9474L166.511 48.9474L166.512 48.947L166.519 48.9455L166.547 48.9391C166.572 48.9333 166.609 48.9247 166.658 48.9137C166.757 48.8917 166.901 48.8599 167.081 48.8217C167.443 48.7452 167.948 48.6431 168.522 48.5411C169.688 48.3342 171.076 48.1392 172.124 48.1392C173.172 48.1392 174.56 48.3342 175.726 48.5411C176.3 48.6431 176.805 48.7452 177.167 48.8217C177.347 48.8599 177.491 48.8917 177.59 48.9137C177.639 48.9247 177.677 48.9333 177.702 48.9391L177.73 48.9455L177.736 48.947L177.738 48.9474L177.738 48.9474L177.738 48.9474L177.738 48.9474C178.275 49.0734 178.813 48.7397 178.94 48.202C179.066 47.6643 178.732 47.1262 178.194 47.0002L177.966 47.9738C178.194 47.0002 178.194 47.0001 178.194 47.0001L178.194 47.0001L178.193 46.9999L178.19 46.9993L178.182 46.9973L178.149 46.9897C178.121 46.9833 178.08 46.9739 178.027 46.9621C177.922 46.9385 177.77 46.9051 177.581 46.8651C177.204 46.7851 176.676 46.6786 176.075 46.5719C174.891 46.3616 173.358 46.1392 172.124 46.1392C170.891 46.1392 169.358 46.3616 168.173 46.5719C167.572 46.6786 167.045 46.7851 166.667 46.8651C166.478 46.9051 166.326 46.9385 166.221 46.9621C166.168 46.9739 166.127 46.9833 166.099 46.9897L166.067 46.9973L166.058 46.9993L166.055 46.9999L166.055 47.0001L166.054 47.0001C166.054 47.0001 166.054 47.0002 166.282 47.9738ZM178.8 52.1465L179.001 53.1261C179.542 53.0151 179.891 52.4866 179.78 51.9456C179.669 51.4046 179.141 51.056 178.6 51.1669L178.6 51.1669L178.599 51.1669L178.598 51.1673L178.59 51.1689L178.557 51.1754C178.528 51.1813 178.485 51.1899 178.428 51.201C178.315 51.2233 178.149 51.2552 177.942 51.2936C177.527 51.3705 176.946 51.4731 176.287 51.5756C174.952 51.7829 173.346 51.981 172.124 51.981C170.902 51.981 169.296 51.7829 167.962 51.5756C167.302 51.4731 166.722 51.3705 166.306 51.2936C166.099 51.2552 165.933 51.2233 165.82 51.201C165.764 51.1899 165.72 51.1813 165.691 51.1754L165.658 51.1689L165.651 51.1673L165.649 51.1669L165.649 51.1669L165.649 51.1669C165.108 51.056 164.579 51.4046 164.468 51.9456C164.357 52.4866 164.706 53.0151 165.247 53.1261L165.448 52.1465C165.247 53.1261 165.247 53.1261 165.247 53.1261L165.247 53.1262L165.248 53.1264L165.251 53.1269L165.261 53.1289L165.297 53.1363C165.329 53.1427 165.376 53.1519 165.435 53.1637C165.555 53.1871 165.727 53.2203 165.942 53.2602C166.371 53.3397 166.971 53.4458 167.655 53.5519C169.006 53.7619 170.739 53.981 172.124 53.981C173.509 53.981 175.242 53.7619 176.593 53.5519C177.277 53.4458 177.877 53.3397 178.306 53.2602C178.521 53.2203 178.694 53.1871 178.813 53.1637C178.873 53.1519 178.919 53.1427 178.951 53.1363L178.988 53.1289L178.997 53.1269L179 53.1264L179.001 53.1262L179.001 53.1261C179.001 53.1261 179.001 53.1261 178.8 52.1465Z" fill="#D92534"/>
</g>
<defs>
<clipPath id="clip0_3669_67194">
<rect width="248" height="138" fill="white"/>
</clipPath>
</defs>
</svg>
